<?xml version="1.0" encoding="UTF-8" standalone="no"?>
<!-- Created with Inkscape (http://www.inkscape.org/) -->

<svg
   xmlns:dc="http://purl.org/dc/elements/1.1/"
   xmlns:cc="http://creativecommons.org/ns#"
   xmlns:rdf="http://www.w3.org/1999/02/22-rdf-syntax-ns#"
   xmlns:svg="http://www.w3.org/2000/svg"
   xmlns="http://www.w3.org/2000/svg"
   xmlns:sodipodi="http://sodipodi.sourceforge.net/DTD/sodipodi-0.dtd"
   xmlns:inkscape="http://www.inkscape.org/namespaces/inkscape"
   width="94.288116"
   height="86.492523"
   id="svg3513"
   version="1.1"
   inkscape:version="0.48.4 r9939"
   sodipodi:docname="Nouveau document 7">
  <defs
     id="defs3515" />
  <sodipodi:namedview
     id="base"
     pagecolor="#ffffff"
     bordercolor="#666666"
     borderopacity="1.0"
     inkscape:pageopacity="0.0"
     inkscape:pageshadow="2"
     inkscape:zoom="1.8820359"
     inkscape:cx="241.42857"
     inkscape:cy="-27.142857"
     inkscape:document-units="px"
     inkscape:current-layer="layer1"
     showgrid="false"
     fit-margin-top="0"
     fit-margin-left="0"
     fit-margin-right="0"
     fit-margin-bottom="0"
     inkscape:window-width="1851"
     inkscape:window-height="1053"
     inkscape:window-x="69"
     inkscape:window-y="27"
     inkscape:window-maximized="1" />
  <metadata
     id="metadata3518">
    <rdf:RDF>
      <cc:Work
         rdf:about="">
        <dc:format>image/svg+xml</dc:format>
        <dc:type
           rdf:resource="http://purl.org/dc/dcmitype/StillImage" />
        <dc:title></dc:title>
      </cc:Work>
    </rdf:RDF>
  </metadata>
  <g
     inkscape:label="Calque 1"
     inkscape:groupmode="layer"
     id="layer1"
     transform="translate(-261.42737,-397.68755)">
    <g
       transform="matrix(0.03543307,0,0,0.03543307,47.057655,-95.186454)"
       id="g3355">
      <g
         class="com.sun.star.drawing.ClosedBezierShape"
         id="g3225">
        <g
           id="id5">
          <path
             d="m 6273,13960 c 0,668 0,1337 0,2005 -58,0 -115,0 -173,0 427,112 853,224 1280,336 427,-112 854,-224 1281,-336 -58,0 -116,0 -174,0 0,-668 0,-1337 0,-2005 -738,0 -1476,0 -2214,0 z"
             id="path3228"
             inkscape:connector-curvature="0"
             style="fill:none;stroke:#000000;stroke-width:100;stroke-linejoin:round" />
        </g>
      </g>
      <g
         class="Group"
         id="g3230">
        <g
           class="com.sun.star.drawing.ClosedBezierShape"
           id="g3232">
          <g
             id="id6">
            <path
               d="m 6471,14839 c 0,-11 6,-20 18,-26 21,-11 46,-27 74,-49 l 75,-55 c -9,-12 -23,-30 -40,-55 -32,-3 -63,-4 -94,-4 -9,0 -17,-3 -22,-8 -6,-6 -9,-13 -9,-22 0,-21 14,-31 42,-31 17,0 43,1 77,3 35,2 60,4 78,4 31,0 67,0 107,1 41,1 77,1 108,1 9,0 20,0 33,-1 12,-1 23,-1 33,-1 9,0 17,3 22,8 6,6 9,13 9,22 0,9 -3,16 -9,22 -5,6 -13,8 -22,8 -10,0 -21,1 -34,2 -13,1 -24,2 -34,2 l -100,-3 c -36,-1 -72,-1 -108,-1 22,29 45,56 71,82 l 70,68 c 7,7 11,14 11,22 0,8 -3,15 -10,22 -6,6 -14,10 -22,10 -7,0 -14,-3 -21,-9 -30,-26 -62,-57 -96,-94 l -92,67 c -43,32 -72,48 -85,48 -8,0 -15,-4 -21,-10 -6,-7 -9,-14 -9,-23 z"
               id="path3235"
               inkscape:connector-curvature="0"
               style="fill:#000000;stroke:none" />
          </g>
        </g>
        <g
           class="com.sun.star.drawing.ClosedBezierShape"
           id="g3237">
          <g
             id="id7">
            <path
               d="m 6458,15318 c 0,-17 9,-27 27,-30 23,-4 55,-7 96,-11 l 97,-11 c 14,-2 28,-5 42,-10 18,-7 28,-15 28,-23 0,-8 -7,-22 -20,-43 -12,-20 -22,-33 -29,-39 -19,0 -39,0 -58,2 l -83,9 c -33,4 -60,6 -81,6 -10,0 -17,-3 -23,-9 -6,-5 -9,-13 -9,-22 0,-8 3,-16 9,-21 6,-6 13,-9 23,-9 25,0 62,-2 111,-8 49,-5 86,-7 111,-7 22,0 39,-3 51,-9 -7,-15 -17,-30 -32,-44 l -41,-37 c -5,-3 -12,-9 -20,-16 -12,0 -31,-1 -55,-3 -24,-3 -42,-4 -54,-4 -6,0 -14,1 -26,3 -11,2 -19,3 -24,3 -8,0 -15,-3 -21,-9 -6,-7 -9,-14 -9,-22 0,-24 27,-35 80,-35 12,0 31,1 55,3 25,2 44,3 56,3 11,0 27,-1 49,-3 22,-2 39,-3 50,-3 47,0 71,11 71,32 0,8 -4,16 -11,22 -7,7 -15,10 -23,10 -4,0 -10,0 -18,-1 -9,-1 -15,-2 -19,-2 l -33,1 c 22,11 42,26 60,47 18,21 27,39 27,54 0,32 -16,54 -48,67 15,11 26,25 34,40 7,16 11,34 11,54 0,35 -19,58 -56,71 -7,2 -36,7 -87,13 -36,5 -95,13 -178,22 -8,1 -15,-2 -21,-8 -6,-7 -9,-14 -9,-23 z"
               id="path3240"
               inkscape:connector-curvature="0"
               style="fill:#000000;stroke:none" />
          </g>
        </g>
      </g>
    </g>
  </g>
</svg>
